# xmcd CD database file
#
# Track frame offsets:
#	150
#	9849
#	20708
#	27858
#	39775
#	50372
#	63351
#
# Disc length: 884 seconds
#
# Revision: 0
# Processed by: cddbd v1.5.1PL0 Copyright (c) Steve Scherf et al.
# Submitted via: CDex 1.51
#
DISCID=47037207
DTITLE=O'Malley's Symphony Orchestra - Prodigal Son EP
DYEAR=2003
DGENRE=Blues
TTITLE0=Dearest Companion
TTITLE1=Tango'd Up In Blue
TTITLE2=I See Her Everywhere
TTITLE3=Broken Hearted I Wander
TTITLE4=I Love This City (Waits)
TTITLE5=Laura's Song
TTITLE6=Polka Right Through My Heart
EXTD=YEAR: 2003
EXTT0=
EXTT1=
EXTT2=
EXTT3=
EXTT4=
EXTT5=
EXTT6=
PLAYORDER=
